<?xml version="1.0" encoding="utf-8"?>
<!-- Generator: Adobe Illustrator 16.0.0, SVG Export Plug-In . SVG Version: 6.00 Build 0)  -->
<svg version="1.2" baseProfile="tiny" xmlns="http://www.w3.org/2000/svg" xmlns:xlink="http://www.w3.org/1999/xlink" x="0px"
	 y="0px" width="100px" height="105px" viewBox="0 0 100 105" xml:space="preserve">
<g id="Layer_2">
	<path fill="#532C12" d="M100,55c0,27.614-22.386,50-50,50S0,82.614,0,55S22.386,5,50,5S100,27.386,100,55z M50,35
		c-11.045,0-20,8.955-20,20c0,11.046,8.955,20,20,20c11.047,0,19.999-8.954,19.999-20C69.999,43.955,61.047,35,50,35z"/>
</g>
<g id="Layer_1">
	<path fill="#85471E" d="M100,50c0,27.614-22.386,50-50,50S0,77.614,0,50S22.386,0,50,0S100,22.386,100,50z M50,30
		c-11.045,0-20,8.955-20,20c0,11.046,8.955,20,20,20c11.047,0,19.999-8.954,19.999-20C69.999,38.955,61.047,30,50,30z"/>
</g>
</svg>
