<?xml version="1.0" encoding="utf-8"?>
<!-- Generator: Adobe Illustrator 16.0.0, SVG Export Plug-In . SVG Version: 6.00 Build 0)  -->
<svg version="1.2" baseProfile="tiny" xmlns="http://www.w3.org/2000/svg" xmlns:xlink="http://www.w3.org/1999/xlink" x="0px"
	 y="0px" width="100px" height="105px" viewBox="0 0 100 105" xml:space="preserve">
<g id="Layer_1">
	<path fill="#D3D3D3" d="M94.649,53.953l3.449-34.868l-7.765,6.367C81.234,13.053,66.559,5,50,5C22.386,5,0,27.386,0,55
		s22.386,50,50,50c10.797,0,20.794-3.422,28.967-9.24v-5L61.184,71.585C57.991,73.741,54.143,75,50,75c-11.046,0-20-8.954-20-20
		s8.954-20,20-20c7.213,0,13.524,3.824,17.043,9.55l-7.262,5.954L94.649,53.953z"/>
	<polyline fill="#D3D3D3" points="59.781,50.504 59.781,45.504 65.165,41.539 95.384,19.937 97.933,17.267 98.099,19.085
		66.015,50.156 59.781,50.504 59.781,44.937 	"/>
</g>
<g id="Layer_2">
	<path fill="#FFFFFF" d="M94.649,48.953l3.449-34.868l-7.765,6.367C81.234,8.053,66.559,0,50,0C22.386,0,0,22.386,0,50
		s22.386,50,50,50c10.797,0,20.794-3.422,28.967-9.24L61.184,66.585C57.991,68.741,54.143,70,50,70c-11.046,0-20-8.954-20-20
		s8.954-20,20-20c7.213,0,13.524,3.824,17.043,9.55l-7.262,5.954L94.649,48.953z"/>
</g>
</svg>
