<?xml version="1.0" encoding="utf-8"?>
<!-- Generator: Adobe Illustrator 16.0.0, SVG Export Plug-In . SVG Version: 6.00 Build 0)  -->
<!DOCTYPE svg PUBLIC "-//W3C//DTD SVG 1.1//EN" "http://www.w3.org/Graphics/SVG/1.1/DTD/svg11.dtd">
<svg version="1.1" id="Layer_1" xmlns="http://www.w3.org/2000/svg" xmlns:xlink="http://www.w3.org/1999/xlink" x="0px" y="0px"
	 width="100px" height="100px" viewBox="0 0 100 100" enable-background="new 0 0 100 100" xml:space="preserve">
<path fill="#2D2F35" d="M97,30.075H70.561V3c0-1.657-1.344-3-3-3h-34c-1.657,0-3,1.343-3,3v27.075H3c-1.657,0-3,1.344-3,3v34
	c0,1.656,1.343,3,3,3h27.561V97c0,1.656,1.343,3,3,3h34c1.656,0,3-1.344,3-3V70.074H97c1.656,0,3-1.344,3-3v-34
	C100,31.418,98.656,30.075,97,30.075z"/>
</svg>
