<?xml version="1.0" encoding="utf-8"?>
<!-- Generator: Adobe Illustrator 16.0.0, SVG Export Plug-In . SVG Version: 6.00 Build 0)  -->
<svg version="1.2" baseProfile="tiny" xmlns="http://www.w3.org/2000/svg" xmlns:xlink="http://www.w3.org/1999/xlink" x="0px"
	 y="0px" width="100px" height="105px" viewBox="0 0 100 105" xml:space="preserve">
<g id="Layer_2">
	<path fill="#834E20" d="M68.145,9.37L49.449,28.065L30.305,8.92c-1.172-1.171-3.072-1.171-4.243,0L4.75,23.667
		c-0.585,0.585-2.583,2.482-2.583,3.25c0,0.768-0.733,9.702-0.147,10.288l19.145,19.144L4.333,70.334
		c-0.872,0.872-2.173-3.305-2.5-0.667C1.72,70.574,1.377,79.781,1.677,80.081l24.041,24.041c1.171,1.17,3.071,1.172,4.243,0
		l19.488-19.488l19.04,19.039c1.171,1.172,3.071,1.172,4.242,0l24.042-24.041c0.567-0.568,1.792-9.304,1.81-10.049
		c0.018-0.791-1.647,0.604-2.25,0L77.733,56.349l18.695-18.695c0.54-0.54,1.695-9.447,1.737-10.154
		c0.049-0.827-2.285-1.785-2.916-2.417L72.388,9.37C71.216,8.198,69.315,8.198,68.145,9.37z"/>
</g>
<g id="Layer_1">
	<path fill="#AA6E2C" d="M69.145,1.328L50.449,20.023L31.305,0.878c-1.172-1.171-3.072-1.171-4.243,0L3.02,24.92
		c-1.171,1.171-1.171,3.071,0,4.243l19.145,19.145L2.677,67.795c-1.171,1.172-1.171,3.072,0,4.244L26.718,96.08
		c1.171,1.17,3.071,1.172,4.243,0l19.488-19.488l19.04,19.039c1.171,1.172,3.071,1.172,4.242,0L97.772,71.59
		c1.171-1.172,1.171-3.072,0-4.244L78.733,48.307l18.695-18.696c1.171-1.171,1.171-3.071,0-4.243L73.388,1.328
		C72.216,0.156,70.315,0.156,69.145,1.328z"/>
</g>
</svg>
